<?xml version="1.0" standalone="no"?><!DOCTYPE svg PUBLIC "-//W3C//DTD SVG 1.1//EN" "http://www.w3.org/Graphics/SVG/1.1/DTD/svg11.dtd"><svg t="1689736375851" class="icon" viewBox="0 0 1024 1024" version="1.1" xmlns="http://www.w3.org/2000/svg" p-id="7959" xmlns:xlink="http://www.w3.org/1999/xlink" width="256" height="256"><path d="M413.866667 320c-17.066667 0-32 14.933333-32 32v320c0 17.066667 14.933333 32 32 32s32-14.933333 32-32v-320c0-17.066667-14.933333-32-32-32zM605.866667 320c-17.066667 0-32 14.933333-32 32v320c0 17.066667 14.933333 32 32 32s32-14.933333 32-32v-320c0-17.066667-14.933333-32-32-32z" fill="#bfbfbf" p-id="7960"></path><path d="M509.866667 32C245.333333 32 32 247.466667 32 512s213.333333 480 477.866667 480S987.733333 776.533333 987.733333 512 774.4 32 509.866667 32z m0 896C281.6 928 96 742.4 96 512S281.6 96 509.866667 96 923.733333 281.6 923.733333 512s-185.6 416-413.866666 416z" fill="#bfbfbf" p-id="7961"></path></svg>